<?xml version="1.0" encoding="UTF-8" standalone="no"?>
<!-- Created with Inkscape (http://www.inkscape.org/) -->

<svg
   xmlns:dc="http://purl.org/dc/elements/1.1/"
   xmlns:cc="http://creativecommons.org/ns#"
   xmlns:rdf="http://www.w3.org/1999/02/22-rdf-syntax-ns#"
   xmlns:svg="http://www.w3.org/2000/svg"
   xmlns="http://www.w3.org/2000/svg"
   xmlns:sodipodi="http://sodipodi.sourceforge.net/DTD/sodipodi-0.dtd"
   xmlns:inkscape="http://www.inkscape.org/namespaces/inkscape"
   version="1.1"
   id="svg2"
   width="500"
   height="388"
   viewBox="0 0 500 388"
   sodipodi:docname="Emblem of Yame, Fukuoka.svg"
   inkscape:version="0.92.3 (2405546, 2018-03-11)">
  <metadata
     id="metadata8">
    <rdf:RDF>
      <cc:Work
         rdf:about="">
        <dc:format>image/svg+xml</dc:format>
        <dc:type
           rdf:resource="http://purl.org/dc/dcmitype/StillImage" />
        <dc:title></dc:title>
      </cc:Work>
    </rdf:RDF>
  </metadata>
  <defs
     id="defs6" />
  <sodipodi:namedview
     pagecolor="#ffffff"
     bordercolor="#666666"
     borderopacity="1"
     objecttolerance="10"
     gridtolerance="10"
     guidetolerance="10"
     inkscape:pageopacity="0"
     inkscape:pageshadow="2"
     inkscape:window-width="1920"
     inkscape:window-height="1017"
     id="namedview4"
     showgrid="false"
     inkscape:zoom="0.568"
     inkscape:cx="791.99461"
     inkscape:cy="194"
     inkscape:window-x="-8"
     inkscape:window-y="-8"
     inkscape:window-maximized="1"
     inkscape:current-layer="svg2" />
  <path
     id="path38316-5"
     d="m 177.59766,98.356997 7.51645,-13.577822 -158.362049,0.0083 61.233851,95.034395 67.426738,-1.4e-4 1.3474,-13.57781 -60.490738,0.002 -8.747697,-13.57634 h 42.906995 l -8.74762,-13.57619 H 78.773929 l -8.747697,-13.57654 h 42.907028 l -8.74769,-13.57631 H 61.278543 L 52.530846,98.364084 Z"
     style="fill:#1313ff;fill-opacity:1;stroke:none;stroke-width:0.81452167px;stroke-linecap:butt;stroke-linejoin:miter;stroke-opacity:1"
     inkscape:connector-curvature="0" />
  <path
     id="path38316-1-2"
     d="m 322.40226,99.255927 -7.51637,-13.577821 158.36204,0.0083 -61.23385,95.034384 -67.42673,-1.4e-4 -1.34748,-13.5778 60.49076,0.002 8.74771,-13.57635 h -42.90703 l 8.7477,-13.57618 h 42.90703 l 8.74771,-13.57635 h -42.90703 l 8.7477,-13.57634 h 42.90703 l 8.74771,-13.576335 z"
     style="fill:#1313ff;fill-opacity:1;stroke:none;stroke-width:0.81452167px;stroke-linecap:butt;stroke-linejoin:miter;stroke-opacity:1"
     inkscape:connector-curvature="0" />
  <path
     sodipodi:nodetypes="czcczcc"
     id="path38613-3"
     d="m 249.76133,19.485759 c -55.75312,35.380595 -94.83935,96.131401 -94.83935,174.905471 0,78.77409 43.45225,143.85014 95.01497,174.79907 l -0.18659,-18.61723 c -48.21967,-33.4359 -80.09007,-92.74152 -79.93819,-156.18184 0.1518,-63.4403 28.55547,-118.99246 80.03325,-156.149947 z"
     style="fill:#1313ff;fill-opacity:1;stroke:none;stroke-width:0.81452167px;stroke-linecap:butt;stroke-linejoin:miter;stroke-opacity:1"
     inkscape:connector-curvature="0" />
  <path
     sodipodi:nodetypes="czcczcc"
     id="path40329-7"
     d="m 249.76133,19.485759 c 55.75319,35.380595 94.83942,96.131401 94.83942,174.905471 0,78.77409 -43.45224,143.85014 -95.01497,174.79907 l 0.1866,-18.61723 c 48.21966,-33.4359 80.08998,-92.74151 79.93818,-156.18184 C 329.5586,130.95093 301.15509,75.39877 249.67732,38.241283 Z"
     style="fill:#1313ff;fill-opacity:1;stroke:none;stroke-width:0.81452167px;stroke-linecap:butt;stroke-linejoin:miter;stroke-opacity:1"
     inkscape:connector-curvature="0" />
  <path
     sodipodi:nodetypes="ccssccssc"
     id="path40870-6"
     d="m 281.35877,66.545533 10.1125,12.188544 c -45.03686,24.118383 -68.71182,67.943703 -68.71182,115.657153 0,15.81154 12.3207,29.18245 27.01489,29.18245 15.7546,0 27.01497,-15.46655 27.01497,-29.18245 h 14.54646 c 0,22.65027 -18.12158,44.89608 -41.56143,44.89608 -22.72701,0 -41.55305,-21.11694 -41.56143,-44.89608 -0.0204,-57.08278 27.30916,-100.86133 73.14586,-127.845697 z"
     style="fill:#1313ff;fill-opacity:1;stroke:none;stroke-width:0.81452167px;stroke-linecap:butt;stroke-linejoin:miter;stroke-opacity:1"
     inkscape:connector-curvature="0" />
  <path
     sodipodi:nodetypes="ccssccssc"
     id="path42191-7"
     d="m 218.18991,322.23693 -10.1125,-12.18853 c 45.03694,-24.11842 68.7119,-67.94373 68.7119,-115.65717 0,-15.81153 -12.32078,-29.18244 -27.01497,-29.18244 -15.75452,0 -27.01489,15.46653 -27.01489,29.18244 h -14.54654 c 0,-22.65026 18.12157,-44.89607 41.56143,-44.89607 22.72701,0 41.55304,21.11695 41.56143,44.89607 0.0204,57.08279 -27.30917,100.86134 -73.14586,127.8457 z"
     style="fill:#1313ff;fill-opacity:1;stroke:none;stroke-width:0.81452167px;stroke-linecap:butt;stroke-linejoin:miter;stroke-opacity:1"
     inkscape:connector-curvature="0" />
</svg>
