<?xml version="1.0" encoding="UTF-8" standalone="no"?>
<!-- Created with Inkscape (http://www.inkscape.org/) -->

<svg
   xmlns:dc="http://purl.org/dc/elements/1.1/"
   xmlns:cc="http://creativecommons.org/ns#"
   xmlns:rdf="http://www.w3.org/1999/02/22-rdf-syntax-ns#"
   xmlns:svg="http://www.w3.org/2000/svg"
   xmlns="http://www.w3.org/2000/svg"
   xmlns:sodipodi="http://sodipodi.sourceforge.net/DTD/sodipodi-0.dtd"
   xmlns:inkscape="http://www.inkscape.org/namespaces/inkscape"
   width="511.8562"
   height="550"
   viewBox="0 0 135.42861 145.52083"
   version="1.1"
   id="svg5"
   inkscape:version="0.92.4 (5da689c313, 2019-01-14)"
   sodipodi:docname="Emblem_of_Miyawaka,_Fukuoka.svg">
  <metadata
     id="metadata11">
    <rdf:RDF>
      <cc:Work
         rdf:about="">
        <dc:format>image/svg+xml</dc:format>
        <dc:type
           rdf:resource="http://purl.org/dc/dcmitype/StillImage" />
        <dc:title></dc:title>
      </cc:Work>
    </rdf:RDF>
  </metadata>
  <sodipodi:namedview
     id="namedview7"
     pagecolor="#505050"
     bordercolor="#eeeeee"
     borderopacity="1"
     inkscape:pageshadow="0"
     inkscape:pageopacity="0"
     inkscape:pagecheckerboard="0"
     inkscape:document-units="px"
     showgrid="false"
     units="px"
     inkscape:snap-page="true"
     inkscape:snap-intersection-paths="true"
     inkscape:snap-global="true"
     inkscape:snap-smooth-nodes="true"
     inkscape:zoom="0.50142283"
     inkscape:cx="-336.66613"
     inkscape:cy="76.710576"
     inkscape:window-width="1920"
     inkscape:window-height="996"
     inkscape:window-x="1912"
     inkscape:window-y="-8"
     inkscape:window-maximized="1"
     inkscape:current-layer="layer1"
     inkscape:object-paths="true"
     fit-margin-top="0"
     fit-margin-left="0"
     fit-margin-right="0"
     fit-margin-bottom="0" />
  <defs
     id="defs2" />
  <g
     inkscape:label="Capa 1"
     inkscape:groupmode="layer"
     id="layer1"
     transform="translate(-51.348192,-6.6145849)">
    <g
       id="g18356"
       transform="matrix(0.98292963,0,0,0.98292963,-3.3537181,-1.2207547)">
      <path
         style="fill:#57b53b;fill-opacity:1;stroke:none;stroke-width:0.26458299px;stroke-linecap:butt;stroke-linejoin:miter;stroke-opacity:1"
         d="m 161.79371,52.914372 0.32901,-4.877141 c -4.10427,-0.699462 -7.40564,-0.651542 -10.79383,-0.651542 -50.25621,0 -89.734293,41.596956 -89.734293,89.734291 0,7.07905 0.86674,12.451 2.012845,18.8995 34.237729,-19.02335 47.775318,-54.81023 47.775318,-82.43294 0,-4.295021 -0.64089,-10.983613 -0.64089,-10.983613 l 0.32855,-0.07536 c 9.04994,13.777808 31.48982,34.722069 64.10735,34.722069 5.89801,0 14.10173,-1.274128 18.25472,-2.208683 -10.83491,-22.216845 -34.64072,-39.313196 -63.96139,-39.313196 -0.74536,0 -2.23584,0.03134 -2.23584,0.03134 0,0 16.00821,-2.798473 24.09363,-3.492498 3.14151,-0.269657 6.8075,8.82e-4 10.46482,0.647773 z"
         id="path11839"
         sodipodi:nodetypes="ccsscsccscscsc"
         inkscape:connector-curvature="0" />
      <path
         style="fill:#57b53b;fill-opacity:1;stroke:none;stroke-width:0.26458299px;stroke-linecap:butt;stroke-linejoin:miter;stroke-opacity:1"
         d="m 55.651909,15.659213 c 1.574165,18.402401 18.785441,42.570282 47.856711,42.570282 1.9944,0 5.97001,-0.397196 5.97001,-0.397196 C 102.87095,34.958105 81.068919,16.771011 55.651909,15.659213 Z"
         id="path14097"
         sodipodi:nodetypes="cscc"
         inkscape:connector-curvature="0" />
      <circle
         style="fill:#f5a101;fill-opacity:1;stroke:none;stroke-width:0.049894;stroke-miterlimit:4;stroke-dasharray:none;stroke-opacity:1"
         id="circle10821-6"
         cx="126.76601"
         cy="24.998743"
         r="17.027328" />
    </g>
  </g>
</svg>
