<?xml version="1.0" encoding="UTF-8"?><svg id="a" xmlns="http://www.w3.org/2000/svg" viewBox="0 0 149.582 121.556"><defs><style>.b{fill:#058643;}.b,.c{stroke:#00693b;}.b,.c,.d{stroke-linejoin:round;}.c,.e{fill:#00693b;}.d{fill:none;stroke:#f3d01f;stroke-width:3px;}</style></defs><line class="d" x1="56.291" y1="47.5" x2="93.291" y2="47.5"/><line class="d" x1="74.791" y1="66" x2="74.791" y2="29"/><circle class="d" cx="74.791" cy="47.5" r="46"/><path class="d" d="M89.101,59.23c-3.39,4.13-8.54,6.77-14.31,6.77s-10.92-2.64-14.31-6.77c-1.27-1.54-2.29-3.3-3-5.2-.77-2.03-1.19-4.23-1.19-6.53,0-9.2,6.71-16.83,15.5-18.26.98-.16,1.98-.24,3-.24s2.02.08,3,.24c8.79,1.43,15.5,9.06,15.5,18.26,0,2.3-.42,4.5-1.19,6.53-.71,1.9-1.73,3.66-3,5.2Z"/><line class="d" x1="71.791" y1="25.71" x2="71.791" y2="12.63"/><path class="d" d="M77.791,17.64v-9.03c20.14,1.54,36,18.36,36,38.89,0,6.03-1.37,11.75-3.81,16.85"/><line class="d" x1="77.791" y1="25.71" x2="77.791" y2="21.67"/><line class="d" x1="57.421" y1="61" x2="46.091" y2="67.53"/><path class="d" d="M47.441,59.82l-7.84,4.53c-2.44-5.1-3.81-10.82-3.81-16.85,0-20.53,15.86-37.35,36-38.89"/><line class="d" x1="54.411" y1="55.8" x2="50.921" y2="57.82"/><line class="d" x1="106.501" y1="62.34" x2="95.171" y2="55.8"/><line class="d" x1="95.651" y1="63.01" x2="92.161" y2="61"/><path class="d" d="M42.611,69.54c7.03,10.24,18.82,16.96,32.18,16.96s25.15-6.72,32.18-16.96l-7.84-4.52"/><path class="c" d="M78.291,111.5c0,5.799-1.567,9.5-3.5,9.5s-3.5-3.701-3.5-9.5,1.567-9.5,3.5-9.5,3.5,3.701,3.5,9.5Z"/><path class="b" d="M7.823,59.1s.596-8.362-5.532-12.1c0,0-3.244,3.872-1,8,1.342,2.469,6.532,4.1,6.532,4.1Z"/><path class="b" d="M4.291,48s-2,9,7.025,13.863c0,0,3.975-9.863-7.025-13.863Z"/><path class="b" d="M14.748,69.01s-5.244-6.995-4.296-16.457c0,0,10.447,5.808,4.296,16.457Z"/><path class="b" d="M1.695,55.362s-1.041,12.872,12.545,12.89c0,0-2.005-8.987-12.545-12.89Z"/><path class="b" d="M16.108,60.111s-5.392,6.818,1.215,14.258c0,0,8.027-5.842-1.215-14.258Z"/><path class="b" d="M17.482,75.604s-9.523-.882-13.433-11.732c0,0,11.459,1.305,13.433,11.732Z"/><path class="b" d="M20.277,77.814s-4.511-5.783-11.558-6.924c0,0,.006,4.258,3.972,6.465,4.731,2.633,7.586.459,7.586.459Z"/><path class="b" d="M19.468,78.837s-4.949-3.913.531-12.877c0,0,7.225,7.376-.531,12.877Z"/><path class="b" d="M17.113,84.34s-2.169-6.877-10.131-8.147c0,0-.293,5.01,2.309,6.807s7.822,1.34,7.822,1.34Z"/><path class="b" d="M10.018,72.909s1.273,11.091,11.897,12.824c0,0,2.376-9.733-11.897-12.824Z"/><path class="b" d="M28.483,91.805s-9.028-4.042-9.192-15.805c0,0,11.173,1.802,9.192,15.805Z"/><path class="b" d="M9.151,83.07s4.284,14.112,18.484,8.154c0,0-5.844-8.651-18.484-8.154Z"/><path class="b" d="M26.189,81.768s-2.787,9.604,7.219,14.59c0,0,5.947-9.728-7.219-14.59Z"/><path class="b" d="M34.09,97.597s-10.316,3.254-18.929-6.535c0,0,12.515-3.657,18.929,6.535Z"/><path class="b" d="M37.932,98.712s-7.125-4.151-14.963-2.26c0,0,1.783,4.514,6.847,5.111,6.041.712,8.116-2.851,8.116-2.851Z"/><path class="b" d="M37.514,100.153s-6.803-1.974-4.818-13.894c0,0,10.626,4.646,4.818,13.894Z"/><path class="b" d="M40.291,106s-4-6-12-5c0,0,0,4,3,5s9,0,9,0Z"/><path class="b" d="M30.291,97s-1,9,15,9c0,0-1-9-15-9Z"/><path class="b" d="M53.291,110s-9.489-2.57-15.245-11.785c0,0,13.245-2.215,15.245,11.785Z"/><path class="b" d="M32.291,107s8.048,12.358,20.024,2.679c0,0-8.024-6.679-20.024-2.679Z"/><path class="b" d="M48.291,101s0,10,11,12c0,0,3-11-11-12Z"/><path class="b" d="M60.291,114s-9,6-20-1c0,0,11-7,20,1Z"/><path class="b" d="M64.291,114s-8-2-15,2c0,0,2.97,3.838,8,3,6-1,7-5,7-5Z"/><path class="b" d="M64.291,115.5s-7.083,0-8.5-12c0,0,11.5,1.5,8.5,12Z"/><path class="b" d="M63.776,111.759c-.61,4.452-4.485,8.241,1.515,9.241,4.067.678,7-5,7-9s-2-8-5-8c-4,0-3,4-3.515,7.759Z"/><circle class="e" cx="67.791" cy="109.5" r="1"/><circle class="e" cx="66.791" cy="117.5" r="1"/><path class="b" d="M141.759,59.1s-.596-8.362,5.532-12.1c0,0,3.244,3.872,1,8-1.342,2.469-6.532,4.1-6.532,4.1Z"/><path class="b" d="M145.291,48s2,9-7.025,13.863c0,0-3.975-9.863,7.025-13.863Z"/><path class="b" d="M134.834,69.01s5.244-6.995,4.296-16.457c0,0-10.447,5.808-4.296,16.457Z"/><path class="b" d="M147.887,55.362s1.041,12.872-12.545,12.89c0,0,2.005-8.987,12.545-12.89Z"/><path class="b" d="M133.474,60.111s5.392,6.818-1.215,14.258c0,0-8.027-5.842,1.215-14.258Z"/><path class="b" d="M132.1,75.604s9.523-.882,13.433-11.732c0,0-11.459,1.305-13.433,11.732Z"/><path class="b" d="M129.305,77.814s4.511-5.783,11.558-6.924c0,0-.006,4.258-3.972,6.465-4.731,2.633-7.586.459-7.586.459Z"/><path class="b" d="M130.114,78.837s4.949-3.913-.531-12.877c0,0-7.225,7.376.531,12.877Z"/><path class="b" d="M132.469,84.34s2.169-6.877,10.131-8.147c0,0,.293,5.01-2.309,6.807s-7.822,1.34-7.822,1.34Z"/><path class="b" d="M139.564,72.909s-1.273,11.091-11.897,12.824c0,0-2.376-9.733,11.897-12.824Z"/><path class="b" d="M121.099,91.805s9.028-4.042,9.192-15.805c0,0-11.173,1.802-9.192,15.805Z"/><path class="b" d="M140.431,83.07s-4.284,14.112-18.484,8.154c0,0,5.844-8.651,18.484-8.154Z"/><path class="b" d="M123.393,81.768s2.787,9.604-7.219,14.59c0,0-5.947-9.728,7.219-14.59Z"/><path class="b" d="M115.492,97.597s10.316,3.254,18.929-6.535c0,0-12.515-3.657-18.929,6.535Z"/><path class="b" d="M111.65,98.712s7.125-4.151,14.963-2.26c0,0-1.783,4.514-6.847,5.111-6.041.712-8.116-2.851-8.116-2.851Z"/><path class="b" d="M112.068,100.153s6.803-1.974,4.818-13.894c0,0-10.626,4.646-4.818,13.894Z"/><path class="b" d="M109.291,106s4-6,12-5c0,0,0,4-3,5s-9,0-9,0Z"/><path class="b" d="M119.291,97s1,9-15,9c0,0,1-9,15-9Z"/><path class="b" d="M96.291,110s9.489-2.57,15.245-11.785c0,0-13.245-2.215-15.245,11.785Z"/><path class="b" d="M117.291,107s-8.048,12.358-20.024,2.679c0,0,8.024-6.679,20.024-2.679Z"/><path class="b" d="M101.291,101s0,10-11,12c0,0-3-11,11-12Z"/><path class="b" d="M89.291,114s9,6,20-1c0,0-11-7-20,1Z"/><path class="b" d="M85.291,114s8-2,15,2c0,0-2.97,3.838-8,3-6-1-7-5-7-5Z"/><path class="b" d="M85.291,115.5s7.083,0,8.5-12c0,0-11.5,1.5-8.5,12Z"/><path class="b" d="M85.806,111.759c.61,4.452,4.485,8.241-1.515,9.241-4.067.678-7-5-7-9s2-8,5-8c4,0,3,4,3.515,7.759Z"/><circle class="e" cx="81.791" cy="109.5" r="1"/><circle class="e" cx="82.791" cy="117.5" r="1"/></svg>