<?xml version="1.0" encoding="UTF-8" standalone="no"?>
<!-- Created with Inkscape (http://www.inkscape.org/) -->

<svg
   xmlns:dc="http://purl.org/dc/elements/1.1/"
   xmlns:cc="http://creativecommons.org/ns#"
   xmlns:rdf="http://www.w3.org/1999/02/22-rdf-syntax-ns#"
   xmlns:svg="http://www.w3.org/2000/svg"
   xmlns="http://www.w3.org/2000/svg"
   xmlns:sodipodi="http://sodipodi.sourceforge.net/DTD/sodipodi-0.dtd"
   xmlns:inkscape="http://www.inkscape.org/namespaces/inkscape"
   version="1.0"
   width="359.875"
   height="356.4375"
   id="svg2"
   sodipodi:docname="Emblem_of_Iizuka,_Fukuoka.svg"
   inkscape:version="0.92.4 (5da689c313, 2019-01-14)">
  <metadata
     id="metadata8">
    <rdf:RDF>
      <cc:Work
         rdf:about="">
        <dc:format>image/svg+xml</dc:format>
        <dc:type
           rdf:resource="http://purl.org/dc/dcmitype/StillImage" />
        <dc:title></dc:title>
      </cc:Work>
    </rdf:RDF>
  </metadata>
  <sodipodi:namedview
     pagecolor="#ffffff"
     bordercolor="#666666"
     borderopacity="1"
     objecttolerance="10"
     gridtolerance="10"
     guidetolerance="10"
     inkscape:pageopacity="0"
     inkscape:pageshadow="2"
     inkscape:window-width="1920"
     inkscape:window-height="996"
     id="namedview6"
     showgrid="false"
     fit-margin-top="0"
     fit-margin-left="0"
     fit-margin-right="0"
     fit-margin-bottom="0"
     inkscape:zoom="1.1125147"
     inkscape:cx="116.50932"
     inkscape:cy="206.68962"
     inkscape:window-x="1912"
     inkscape:window-y="-8"
     inkscape:window-maximized="1"
     inkscape:current-layer="svg2" />
  <defs
     id="defs5" />
  <path
     d="M 174,0 C 77.27397,3.16647 10e-6,82.63346 0,180.125 0,266.72006 60.91895,339.11714 142.375,356.4375 l 9.375,-17.84375 C 85.90801,325.4604 36.25,267.30968 36.25,197.625 c 0,-26.45621 7.14139,-51.26319 19.625,-72.5625 l 0.0937,0.0625 C 149.46875,182.125 163,356.375 163,356.375 h 6 c 2,-151.58615 -52.5,-230.75 -96,-254.25 l -0.25,-0.1875 C 97.83902,73.83752 133.79492,55.65075 174,54 Z m 12,0 v 54 c 40.12612,1.64751 76.01141,19.77533 101.09375,47.78125 l -0.0625,0.0937 c -43.49998,23 -98,102.91385 -96,254.5 h 6 c -1e-5,0 14.03241,-175.44347 107,-231.46875 12.54075,21.33461 19.71875,46.19732 19.71875,72.7188 0,69.68467 -49.65801,127.8354 -115.5,140.96875 l 9.375,17.84375 C 299.08105,339.11714 359.87498,266.72006 359.875,180.125 359.875,82.63346 282.72604,3.16647 186,0 Z m -23,62.375 10.96875,294 H 186 l 11,-294 z"
     id="path2386"
     style="fill:#000000;stroke:none"
     inkscape:connector-curvature="0" />
</svg>
